# xmcd
#
# Track frame offsets:
#	150
#	24185
#	57087
#	83036
#	118148
#	144483
#	162973
#	186722
#	203737
#	224635
#	250190
#	266880
#	287947
#	312564
#
# Disc length: 4491 seconds
#
# Revision: 1
# Processed by: cddbd v1.5.2PL0 Copyright (c) Steve Scherf et al.
# Submitted via: EasyCDDAExtractor 6.0.0.1
#
DISCID=dc11890e
DTITLE=Eric Clapton - Pilgrim
DYEAR=1998
DGENRE=Blues
TTITLE0=My father's eyes
TTITLE1=River of tears
TTITLE2=Pilgrim
TTITLE3=Broken hearted
TTITLE4=One chance
TTITLE5=Circus
TTITLE6=Going down slow
TTITLE7=Fall like rain
TTITLE8=Born in time
TTITLE9=Sick and tired
TTITLE10=Needs his woman
TTITLE11=She's gone
TTITLE12=You were there
TTITLE13=Inside of me
EXTD=
EXTT0=
EXTT1=
EXTT2=
EXTT3=
EXTT4=
EXTT5=
EXTT6=
EXTT7=
EXTT8=
EXTT9=
EXTT10=
EXTT11=
EXTT12=
EXTT13=
PLAYORDER=
